<svg width="40" height="40" viewBox="0 0 40 40" fill="none" xmlns="http://www.w3.org/2000/svg">
  <!-- Background Circle -->
  <circle cx="20" cy="20" r="20" fill="#2563eb"/>
  
  <!-- Chart/Graph Bars -->
  <rect x="8" y="24" width="3" height="10" fill="white" rx="1.5"/>
  <rect x="13" y="20" width="3" height="14" fill="white" rx="1.5"/>
  <rect x="18" y="16" width="3" height="18" fill="white" rx="1.5"/>
  <rect x="23" y="12" width="3" height="22" fill="white" rx="1.5"/>
  <rect x="28" y="18" width="3" height="16" fill="white" rx="1.5"/>
  
  <!-- Q Letter -->
  <path d="M6 8 C6 6 8 6 10 6 L12 6 C14 6 14 8 14 8 L14 12 C14 14 12 14 10 14 L8 14 C6 14 6 12 6 12 L6 8 Z" 
        fill="white" opacity="0.3"/>
  <circle cx="10" cy="10" r="2" fill="none" stroke="white" stroke-width="1.5" opacity="0.8"/>
  <line x1="11.5" y1="11.5" x2="13" y2="13" stroke="white" stroke-width="1.5" opacity="0.8"/>
</svg>
